# xmcd CD database file
#
# Track frame offsets:
#	150
#	24800
#	41918
#	57001
#	75522
#	93581
#	110386
#	136966
#	157923
#	180467
#	202181
#	214798
#	234915
#
# Disc length: 3442 seconds
#
# Revision: 3
# Processed by: cddbd v1.5.2PL0 Copyright (c) Steve Scherf et al.
# Submitted via: CDex 1.70beta2
#
DISCID=a00d700d
DTITLE=Stacey Kent - Breakfast on the morning tram
DYEAR=2007
DGENRE=Jazz
TTITLE0=The ice hotel
TTITLE1=Landslide
TTITLE2=Ces petits riens
TTITLE3=I wish I could go travelling again
TTITLE4=So many stars
TTITLE5=Samba Saravah
TTITLE6=Breakfast on the morning tram
TTITLE7=Never let me go
TTITLE8=So romantic
TTITLE9=Hard Hearted Hannah
TTITLE10=La saison des pluies
TTITLE11=What a wonderful world
TTITLE12=The ice hotel (live)
EXTD=YEAR: 2007
EXTT0=
EXTT1=
EXTT2=
EXTT3=
EXTT4=
EXTT5=
EXTT6=
EXTT7=
EXTT8=
EXTT9=
EXTT10=
EXTT11=
EXTT12=
PLAYORDER=
